<svg xmlns="http://www.w3.org/2000/svg" viewBox="0 0 512 512"><defs><linearGradient id="g" x1="0" y1="0" x2="1" y2="1"><stop stop-color="#14283d"/><stop offset="1" stop-color="#07111c"/></linearGradient><linearGradient id="c" x1="0" y1="0" x2="1" y2="1"><stop stop-color="#8bf06d"/><stop offset="1" stop-color="#20b84b"/></linearGradient></defs><rect width="512" height="512" rx="104" fill="url(#g)"/><rect x="92" y="105" width="275" height="292" rx="34" fill="#f7f9fb" stroke="#091522" stroke-width="16"/><rect x="164" y="66" width="158" height="76" rx="24" fill="url(#c)" stroke="#09201a" stroke-width="10"/><circle cx="243" cy="92" r="17" fill="#102034"/><g fill="url(#c)"><rect x="126" y="160" width="58" height="58" rx="15"/><rect x="126" y="238" width="58" height="58" rx="15"/><rect x="126" y="316" width="58" height="58" rx="15"/></g><g fill="none" stroke="#fff" stroke-width="13" stroke-linecap="round" stroke-linejoin="round"><path d="m140 188 13 13 24-27"/><path d="m140 266 13 13 24-27"/><path d="m140 344 13 13 24-27"/></g><g fill="#132238"><rect x="207" y="170" width="115" height="15" rx="8"/><rect x="207" y="198" width="82" height="13" rx="7"/><rect x="207" y="248" width="115" height="15" rx="8"/><rect x="207" y="276" width="82" height="13" rx="7"/><rect x="207" y="326" width="90" height="15" rx="8"/><rect x="207" y="354" width="63" height="13" rx="7"/></g><path d="M337 274 416 188v42h36l-115 116z" fill="#8bf06d" stroke="#17352a" stroke-width="10" stroke-linejoin="round"/><circle cx="356" cy="360" r="83" fill="url(#c)" stroke="#0a1e19" stroke-width="13"/><circle cx="356" cy="360" r="62" fill="#1caf4d" stroke="#8bf06d" stroke-width="6"/><text x="356" y="389" text-anchor="middle" font-family="Arial,Helvetica,sans-serif" font-size="92" font-weight="800" fill="#fff">£</text></svg>